<?xml version="1.0" encoding="utf-8"?>
<!-- Generator: Adobe Illustrator 16.0.0, SVG Export Plug-In . SVG Version: 6.00 Build 0)  -->
<!DOCTYPE svg PUBLIC "-//W3C//DTD SVG 1.1//EN" "http://www.w3.org/Graphics/SVG/1.1/DTD/svg11.dtd">
<svg version="1.1" id="Layer_1" xmlns="http://www.w3.org/2000/svg" xmlns:xlink="http://www.w3.org/1999/xlink" x="0px" y="0px"
	 width="30px" height="59.833px" viewBox="0 0 30 59.833" enable-background="new 0 0 30 59.833" xml:space="preserve">
<path fill="#FFFFFF" d="M9.537,12.365l2.133,0.003v-0.967l0.002-0.948v-0.158c0.002-0.912,0.027-2.321,0.691-3.193
	c0.701-0.923,1.664-1.55,3.315-1.547c2.688,0.005,3.822,0.39,3.822,0.39l-0.539,3.158c0,0-0.889-0.258-1.719-0.26
	c-0.828-0.001-1.57,0.294-1.572,1.123l-0.002,0.336v1.105l-0.002,0.968l3.398,0.005l-0.24,3.084L15.66,15.46l-0.02,10.718
	l-3.999-0.006l0.02-10.72L9.53,15.45L9.537,12.365z"/>
<path fill="#111111" d="M9.537,40.366l2.133,0.002v-0.967l0.002-0.947v-0.158c0.002-0.912,0.027-2.32,0.691-3.192
	c0.701-0.923,1.664-1.552,3.315-1.547c2.688,0.005,3.822,0.39,3.822,0.39l-0.539,3.158c0,0-0.889-0.26-1.719-0.262
	c-0.828,0-1.57,0.296-1.572,1.123l-0.002,0.336v1.105l-0.002,0.969l3.398,0.004l-0.24,3.086l-3.164-0.004l-0.02,10.719l-3.999-0.008
	l0.02-10.719L9.53,43.452L9.537,40.366z"/>
</svg>
