<?xml version="1.0" encoding="utf-8"?>
<!-- Generator: Adobe Illustrator 16.0.0, SVG Export Plug-In . SVG Version: 6.00 Build 0)  -->
<!DOCTYPE svg PUBLIC "-//W3C//DTD SVG 1.1//EN" "http://www.w3.org/Graphics/SVG/1.1/DTD/svg11.dtd">
<svg version="1.1" id="Layer_1" xmlns="http://www.w3.org/2000/svg" xmlns:xlink="http://www.w3.org/1999/xlink" x="0px" y="0px"
	 width="30px" height="59.833px" viewBox="0 0 30 59.833" enable-background="new 0 0 30 59.833" xml:space="preserve">
<g>
	<path d="M15.178,17.143c1.39,0,2.519-1.128,2.519-2.518c0-1.389-1.129-2.518-2.519-2.518c-1.389,0-2.518,1.129-2.518,2.518
		C12.66,16.015,13.789,17.143,15.178,17.143z M20.613,9.77c0.759,0,1.371-0.615,1.371-1.371c0-0.758-0.612-1.371-1.371-1.371
		c-0.758,0-1.37,0.613-1.37,1.371C19.243,9.155,19.855,9.77,20.613,9.77z M20.213,14.625c0,2.78-2.255,5.035-5.035,5.035
		c-2.78,0-5.035-2.255-5.035-5.035c0-0.584,0.105-1.145,0.289-1.668H7.998v6.824c0,1.178,0.964,2.144,2.144,2.144h9.715
		c1.18,0,2.144-0.966,2.144-2.144v-8.969h-3.54C19.532,11.735,20.213,13.1,20.213,14.625z M24.341,21.583
		c0,1.572-1.286,2.86-2.86,2.86H8.519c-1.574,0-2.86-1.288-2.86-2.86V8.621c0-1.574,1.286-2.86,2.86-2.86h12.963
		c1.572,0,2.859,1.286,2.859,2.86L24.341,21.583L24.341,21.583z"/>
	<path fill="#CCCCCC" d="M15.178,46.771c1.39,0,2.519-1.129,2.519-2.519c0-1.389-1.129-2.518-2.519-2.518
		c-1.389,0-2.518,1.129-2.518,2.518C12.66,45.642,13.789,46.771,15.178,46.771z M20.613,39.398c0.759,0,1.371-0.614,1.371-1.37
		c0-0.758-0.612-1.371-1.371-1.371c-0.758,0-1.37,0.613-1.37,1.371C19.243,38.784,19.855,39.398,20.613,39.398z M20.213,44.252
		c0,2.781-2.255,5.035-5.035,5.035c-2.78,0-5.035-2.254-5.035-5.035c0-0.584,0.105-1.145,0.289-1.668H7.998v6.824
		c0,1.178,0.964,2.145,2.144,2.145h9.715c1.18,0,2.144-0.967,2.144-2.145v-8.97h-3.54C19.532,41.364,20.213,42.728,20.213,44.252z
		 M24.341,51.211c0,1.572-1.286,2.859-2.86,2.859H8.519c-1.574,0-2.86-1.287-2.86-2.859V38.25c0-1.574,1.286-2.859,2.86-2.859
		h12.963c1.572,0,2.859,1.285,2.859,2.859L24.341,51.211L24.341,51.211z"/>
</g>
</svg>
